<?xml version="1.0" encoding="UTF-8"?>
<svg xmlns="http://www.w3.org/2000/svg" version="1.1" viewBox="0 0 1450.4 825.3">
  <defs>
    <style>
      .st0 {
        fill: #1185fe;
      }

      .st1 {
        fill: #fff;
      }
    </style>
  </defs>
    <path class="st1" d="M895.8,721.9c71.4,0,131.4-48,149.4-113.4l169,98.7-99.8-136.3c60.5-21.3,103.6-79,103.6-146.6s-69.8-155.4-155.4-155.4h-8.2c-10.9-97.6-93.8-173.3-194.6-173.3s-111.7,26.2-147.7,67.6c-31.1-33.3-75.2-54-124.8-54s-124.8,38.7-153.2,94.8c-18-7.1-37.6-11.4-58.3-11.4-85.6,0-155.4,69.8-155.4,155.4s32.7,110.1,81.2,136.8c-1.6,9.3-2.7,18.5-2.7,27.8,0,85.6,69.8,155.4,155.4,155.4s88.3-20.7,116.7-52.9c27.8,27.3,66,44.2,108.5,44.2s55.1-7.6,77.9-21.3c26.2,49.6,78.5,83.9,138.5,83.9Z"/>
    <path class="st0" d="M1246,604.8c23.2,17.4,48.1,52.7,57.3,71.6,9.2-18.9,34.1-54.2,57.3-71.6,16.7-12.6,43.8-22.3,43.8,8.6s-3.5,51.9-5.6,59.3c-7.2,25.8-33.5,32.4-56.9,28.4,40.9,7,51.3,30,28.8,53.1-42.7,43.8-61.3-11-66.1-25-.9-2.6-1.3-3.8-1.3-2.8,0-1-.4.2-1.3,2.8-4.8,14-23.4,68.8-66.1,25-22.5-23.1-12.1-46.1,28.8-53.1-23.4,4-49.7-2.6-56.9-28.4-2.1-7.4-5.6-53.1-5.6-59.3,0-30.9,27.1-21.2,43.8-8.6h0Z"/>
</svg>