<?xml version="1.0" encoding="UTF-8"?>
<svg xmlns="http://www.w3.org/2000/svg" version="1.1" viewBox="0 0 1024 667.6">
    <path class="st0" d="M950.6,277.4c1.2-5.3,2-10.8,2-16.7,0-40.7-33.1-73.8-73.8-73.8s-32.5,5.9-45.1,15.5c-9.1-30.7-37.2-53-70.8-53s-35.7,7-48.6,18.4c-11.7-25.5-37.2-43.3-67.3-43.3s-39.5,8.5-53,22.2c-12-24.3-37.2-41-66.2-41s-49.8,14.1-62.9,35.1c-13.5-13.8-32.2-22.5-53-22.5s-54.5,17-66.5,41.6c-12.6-10.2-28.7-16.4-46.5-16.4-36.3,0-66.5,26.3-72.6,60.9-12.3-8.8-27.2-14.1-43.3-14.1-40.7,0-73.8,33.1-73.8,73.8s.6,9.7,1.5,14.1c-31.3,4.4-55.3,31-55.3,63.5s11.7,42.4,29.3,53.9c-26.9,17-55.3,29.6-77.9,35.1,41,16.1,78.2,19.6,109.5,17.9,11.7,25.2,37.2,42.7,67,42.7s31-5.3,43.3-14.1c6.1,34.5,36.3,60.9,72.6,60.9s33.7-6.1,46.5-16.4c12,24.6,37.2,41.6,66.5,41.6s39.5-8.8,53-22.5c12.9,21.1,36.3,35.1,62.9,35.1s54.2-16.7,66.2-41c13.5,13.8,32.2,22.2,53,22.2,29.9,0,55.6-17.9,67.3-43.3,12.9,11.4,29.9,18.4,48.6,18.4,33.7,0,61.8-22.2,70.8-53,12.6,9.7,28.1,15.5,45.1,15.5,40.7,0,73.8-33.1,73.8-73.8s-.6-10.2-1.5-14.9c35.1-.3,63.5-29,63.5-64.1-.6-36-29.3-64.7-64.4-64.7Z"/>
</svg>