<?xml version="1.0" encoding="UTF-8"?>
<svg xmlns="http://www.w3.org/2000/svg" version="1.1" viewBox="0 0 1450.4 825.3">
  <defs>
    <style>
      .st0 {
        fill: #1185fe;
      }

      .st1 {
        fill: #fff;
      }
    </style>
  </defs>
    <path class="st1" d="M1231.3,426.8c0-55.5-36.5-102.7-86.6-118.9v-4.8c0-52.6-42.8-95.5-95.5-95.5s-59.3,15.2-76.7,38.7c-21.2-32.7-58-54.5-99.9-54.5s-66.9,15.2-88.8,39.6c-17.4-7.6-36.5-12.1-56.8-12.1s-19,1-27.9,2.9c-16.2-18.7-40-30.4-66.3-30.4s-62.2,18.7-77.1,46c-25.1-37.1-67.2-61.5-115.4-61.5-70.1,0-127.8,52-137.3,119.2-48.5,14.9-84,60.3-84,113.8s27.3,87.5,66.6,106.9c13.3,51.4,59.9,89.4,115.4,89.4s51.4-8.9,71.3-23.8c20.9,18.1,48.2,28.9,78,28.9s70.4-17.1,92.3-43.8c21.9,26.6,55.2,43.8,92.3,43.8s72-17.8,93.9-45.7c21.9,23.1,52.6,37.7,86.9,37.7s30.1-2.9,43.8-8.2c19,12.7,41.9,20,66.3,20,40,0,75.5-19.7,97-50.1,33,30.1,60.9,68.8,73.9,98.9,12.1-58.3,4.4-107.2-7.3-143.3,25.4-22.8,41.9-56.1,41.9-93.2Z"/>
    <path class="st0" d="M1136.2,647.8c23.2,17.4,48.1,52.7,57.3,71.6,9.2-18.9,34.1-54.2,57.3-71.6,16.7-12.6,43.8-22.3,43.8,8.6s-3.5,51.9-5.6,59.3c-7.2,25.8-33.5,32.4-56.9,28.4,40.9,7,51.3,30,28.8,53.1-42.7,43.8-61.3-11-66.1-25-.9-2.6-1.3-3.8-1.3-2.8,0-1-.4.2-1.3,2.8-4.8,14-23.4,68.8-66.1,25-22.5-23.1-12.1-46.1,28.8-53.1-23.4,4-49.7-2.6-56.9-28.4-2.1-7.4-5.6-53.1-5.6-59.3,0-30.9,27.1-21.2,43.8-8.6h0Z"/>
</svg>