<?xml version="1.0" encoding="UTF-8"?>
<svg xmlns="http://www.w3.org/2000/svg" version="1.1" viewBox="0 0 1024 1024">
  <path d="M682.6,821.3c71.4,0,131.4-48,149.4-113.4l169,98.7-99.8-136.3c60.5-21.3,103.6-79,103.6-146.6s-69.8-155.4-155.4-155.4h-8.2c-10.9-97.6-93.8-173.3-194.6-173.3s-111.7,26.2-147.7,67.6c-31.1-33.3-75.2-54-124.8-54s-124.8,38.7-153.2,94.8c-18-7.1-37.6-11.4-58.3-11.4-85.6,0-155.4,69.8-155.4,155.4s32.7,110.1,81.2,136.8c-1.6,9.3-2.7,18.5-2.7,27.8,0,85.6,69.8,155.4,155.4,155.4s88.3-20.7,116.7-52.9c27.8,27.3,66,44.2,108.5,44.2s55.1-7.6,77.9-21.3c26.2,49.6,78.5,83.9,138.5,83.9Z"/>
</svg>