<?xml version="1.0" encoding="UTF-8"?>
<svg xmlns="http://www.w3.org/2000/svg" version="1.1" viewBox="0 0 1450.4 825.3">
  <defs>
    <style>
      .st0 {
        fill: #1185fe;
      }

      .st1 {
        fill: #fff;
      }
    </style>
  </defs>
  <path class="st1" d="M1232.8,400.9c-2.1-33.8-16.7-62.9-38.2-80.9-1.6-43.2-29.8-79.3-66.1-82.3-16.9-1.4-33,4.4-46,15.5-17.2-23.3-41.7-38.8-69.6-41.3-14.6-1.4-28.8,1.4-41.9,6.9-11.9-15.2-28.4-25.5-47.1-27.2-27.5-2.2-52.2,14.4-65.7,40.7-14.4-11.6-31.4-19.1-49.9-20.5-14.6-1.4-28.8,1.4-41.9,6.9-11.9-15.2-28.4-25.5-47.1-27.2-27.5-2.2-52.2,14.4-65.7,40.7-14.4-11.6-31.4-19.1-49.9-20.5-14.6-1.4-28.8,1.4-41.9,6.9-11.9-15.2-28.4-25.5-47.1-27.2-27.5-2.2-52.2,14.4-65.7,40.7-14.4-11.6-31.4-19.1-49.9-20.5-49.4-4.2-93.4,34.6-106.4,90.3-45.8,7.8-79.4,57.4-76,113.9,3,52.7,36.9,93.7,78.5,99.2,6.2,20,16.3,37.1,29.3,50.7-16.9,28.5-37.5,47.1-37.5,47.1,0,0,39.8,0,70.3-24.1,13,5.5,27.2,8.3,41.9,6.9,18.5-1.7,35.5-8.9,49.9-20.5,13.5,26.3,38.5,43.2,65.7,40.7,18.8-1.7,35.2-11.9,46.9-27.2,13,5.5,27.2,8,41.9,6.9,18.5-1.7,35.5-8.9,49.9-20.5,13.5,26.3,38.5,43.2,65.7,40.7,18.8-1.7,35.2-11.9,46.9-27.2,13,5.5,27.2,8,41.9,6.9,1.1,0,2.5-.3,3.7-.6,6,.8,12.1.8,18.3.6,12.1-1.1,23.6-4.4,33.9-10,14.2,20.2,35.9,32.4,59.5,30.5,18.8-1.7,35.2-11.9,47.1-27.2,13,5.5,27.2,8,41.9,6.9,21.3-1.9,40.7-11.4,56.3-26.3,13.7,14.7,32.3,23,52.2,21.3,38.5-3.3,67.5-42.7,66.1-89,30-20,48.5-58.7,46-101.4Z"/>
  <path class="st0" d="M109.9,553c23.2,17.4,48.1,52.7,57.3,71.6,9.2-18.9,34.1-54.2,57.3-71.6,16.7-12.6,43.8-22.3,43.8,8.6s-3.5,51.9-5.6,59.3c-7.2,25.8-33.5,32.4-56.9,28.4,40.9,7,51.3,30,28.8,53.1-42.7,43.8-61.3-11-66.1-25-.9-2.6-1.3-3.8-1.3-2.8,0-1-.4.2-1.3,2.8-4.8,14-23.4,68.8-66.1,25-22.5-23.1-12.1-46.1,28.8-53.1-23.4,4-49.7-2.6-56.9-28.4-2.1-7.4-5.6-53.1-5.6-59.3,0-30.9,27.1-21.2,43.8-8.6h0Z"/>
</svg>