<?xml version="1.0" encoding="UTF-8"?>
<svg xmlns="http://www.w3.org/2000/svg" version="1.1" viewBox="0 0 1024 667.6">
  <!-- Generator: Adobe Illustrator 29.1.0, SVG Export Plug-In . SVG Version: 2.1.0 Build 142)  -->
  <defs>
    <style>
      .st0 {
        fill: #010101;
      }
    </style>
  </defs>
  <g id="Layer_1">
    <path class="st0" d="M1019.7,322.1c-2.1-33.8-16.7-62.9-38.2-80.9-1.6-43.2-29.8-79.3-66.1-82.3-16.9-1.4-33,4.4-46,15.5-17.2-23.3-41.7-38.8-69.6-41.3-14.6-1.4-28.8,1.4-41.9,6.9-11.9-15.2-28.4-25.5-47.1-27.2-27.5-2.2-52.2,14.4-65.7,40.7-14.4-11.6-31.4-19.1-49.9-20.5-14.6-1.4-28.8,1.4-41.9,6.9-11.9-15.2-28.4-25.5-47.1-27.2-27.5-2.2-52.2,14.4-65.7,40.7-14.4-11.6-31.4-19.1-49.9-20.5-14.6-1.4-28.8,1.4-41.9,6.9-11.9-15.2-28.4-25.5-47.1-27.2-27.5-2.2-52.2,14.4-65.7,40.7-14.4-11.6-31.4-19.1-49.9-20.5-49.4-4.2-93.4,34.6-106.4,90.3C33.6,231.2,0,280.8,3.4,337.3c3,52.7,36.9,93.7,78.5,99.2,6.2,20,16.3,37.1,29.3,50.7-16.9,28.5-37.5,47.1-37.5,47.1,0,0,39.8,0,70.3-24.1,13,5.5,27.2,8.3,41.9,6.9,18.5-1.7,35.5-8.9,49.9-20.5,13.5,26.3,38.5,43.2,65.7,40.7,18.8-1.7,35.2-11.9,46.9-27.2,13,5.5,27.2,8,41.9,6.9,18.5-1.7,35.5-8.9,49.9-20.5,13.5,26.3,38.5,43.2,65.7,40.7,18.8-1.7,35.2-11.9,46.9-27.2,13,5.5,27.2,8,41.9,6.9,1.1,0,2.5-.3,3.7-.6,6,.8,12.1.8,18.3.6,12.1-1.1,23.6-4.4,33.9-10,14.2,20.2,35.9,32.4,59.5,30.5,18.8-1.7,35.2-11.9,47.1-27.2,13,5.5,27.2,8,41.9,6.9,21.3-1.9,40.7-11.4,56.3-26.3,13.7,14.7,32.3,23,52.2,21.3,38.5-3.3,67.5-42.7,66.1-89,30-20,48.5-58.7,46-101.4Z"/>
  </g>
  <g id="Layer_2">
    <path class="st0" d="M1018.1,347.9c0-55.5-36.5-102.7-86.6-118.9v-4.8c0-52.6-42.8-95.5-95.5-95.5s-59.3,15.2-76.7,38.7c-21.2-32.7-58-54.5-99.9-54.5s-66.9,15.2-88.8,39.6c-17.4-7.6-36.5-12.1-56.8-12.1s-19,1-27.9,2.9c-16.2-18.7-40-30.4-66.3-30.4s-62.2,18.7-77.1,46c-25.1-37.1-67.2-61.5-115.4-61.5-70.1,0-127.8,52-137.3,119.2-48.5,14.9-84,60.3-84,113.8s27.3,87.5,66.6,106.9c13.3,51.4,59.9,89.4,115.4,89.4s51.4-8.9,71.3-23.8c20.9,18.1,48.2,28.9,78,28.9s70.4-17.1,92.3-43.8c21.9,26.6,55.2,43.8,92.3,43.8s72-17.8,93.9-45.7c21.9,23.1,52.6,37.7,86.9,37.7s30.1-2.9,43.8-8.2c19,12.7,41.9,20,66.3,20,40,0,75.5-19.7,97-50.1,33,30.1,60.9,68.8,73.9,98.9,12.1-58.3,4.4-107.2-7.3-143.3,25.4-22.8,41.9-56.1,41.9-93.2Z"/>
  </g>
  <g id="Layer_4">
    <path class="st0" d="M950.6,277.4c1.2-5.3,2-10.8,2-16.7,0-40.7-33.1-73.8-73.8-73.8s-32.5,5.9-45.1,15.5c-9.1-30.7-37.2-53-70.8-53s-35.7,7-48.6,18.4c-11.7-25.5-37.2-43.3-67.3-43.3s-39.5,8.5-53,22.2c-12-24.3-37.2-41-66.2-41s-49.8,14.1-62.9,35.1c-13.5-13.8-32.2-22.5-53-22.5s-54.5,17-66.5,41.6c-12.6-10.2-28.7-16.4-46.5-16.4-36.3,0-66.5,26.3-72.6,60.9-12.3-8.8-27.2-14.1-43.3-14.1-40.7,0-73.8,33.1-73.8,73.8s.6,9.7,1.5,14.1c-31.3,4.4-55.3,31-55.3,63.5s11.7,42.4,29.3,53.9c-26.9,17-55.3,29.6-77.9,35.1,41,16.1,78.2,19.6,109.5,17.9,11.7,25.2,37.2,42.7,67,42.7s31-5.3,43.3-14.1c6.1,34.5,36.3,60.9,72.6,60.9s33.7-6.1,46.5-16.4c12,24.6,37.2,41.6,66.5,41.6s39.5-8.8,53-22.5c12.9,21.1,36.3,35.1,62.9,35.1s54.2-16.7,66.2-41c13.5,13.8,32.2,22.2,53,22.2,29.9,0,55.6-17.9,67.3-43.3,12.9,11.4,29.9,18.4,48.6,18.4,33.7,0,61.8-22.2,70.8-53,12.6,9.7,28.1,15.5,45.1,15.5,40.7,0,73.8-33.1,73.8-73.8s-.6-10.2-1.5-14.9c35.1-.3,63.5-29,63.5-64.1-.6-36-29.3-64.7-64.4-64.7Z"/>
  </g>
  <g id="Layer_5">
    <path class="st0" d="M682.6,643.1c71.4,0,131.4-48,149.4-113.4l169,98.7-99.8-136.3c60.5-21.3,103.6-79,103.6-146.6s-69.8-155.4-155.4-155.4h-8.2c-10.9-97.6-93.8-173.3-194.6-173.3s-111.7,26.2-147.7,67.6c-31.1-33.3-75.2-54-124.8-54s-124.8,38.7-153.2,94.8c-18-7.1-37.6-11.4-58.3-11.4C77,113.8,7.2,183.6,7.2,269.1s32.7,110.1,81.2,136.8c-1.6,9.3-2.7,18.5-2.7,27.8,0,85.6,69.8,155.4,155.4,155.4s88.3-20.7,116.7-52.9c27.8,27.3,66,44.2,108.5,44.2s55.1-7.6,77.9-21.3c26.2,49.6,78.5,83.9,138.5,83.9Z"/>
  </g>
</svg>