<?xml version="1.0" encoding="UTF-8"?>
<svg id="Layer_1" xmlns="http://www.w3.org/2000/svg" version="1.1" viewBox="0 0 600 530">
  <!-- Generator: Adobe Illustrator 29.1.0, SVG Export Plug-In . SVG Version: 2.1.0 Build 142)  -->
  <defs>
    <style>
      .st0 {
        fill: #1185fe;
      }

      .st1 {
        fill: #1a1a54;
      }

      .st2 {
        fill: #fff;
      }
    </style>
  </defs>
  <path class="st0" d="M135.7,44c66.5,49.9,138,151.1,164.3,205.5,26.3-54.3,97.8-155.5,164.3-205.5,48-36,125.7-63.9,125.7,24.8s-10.2,148.8-16.1,170.1c-20.7,74-96.1,92.9-163.2,81.4,117.3,20,147.1,86.1,82.7,152.2-122.4,125.6-175.9-31.5-189.6-71.8-2.5-7.4-3.7-10.8-3.7-7.9,0-2.9-1.2.5-3.7,7.9-13.7,40.3-67.2,197.4-189.6,71.8-64.4-66.1-34.6-132.3,82.7-152.2-67.1,11.4-142.6-7.4-163.2-81.4-6-21.3-16.1-152.4-16.1-170.1,0-88.7,77.7-60.8,125.7-24.8h0Z"/>
  <g>
    <path class="st1" d="M437.3,220.1l-293.2,51.7c-16.1,2.8-27,18.4-24.1,34.5l14.2,80.6c2.8,16.1,18.4,27,34.5,24.1l293.2-51.7c16.1-2.8,27-18.4,24.1-34.5l-14.2-80.6c-2.8-16.1-18.4-27-34.5-24.1Z"/>
    <path class="st2" d="M216.5,333.1l-14.1,5.5,11.3,8.6c2.6,1.8,2.4,4.9.6,7.5l-7,7.3c-1.9,1.9-5.7,1.8-6.9-.3l-8.9-12-4.3,14.4c-1.1,2.5-3.9,3.7-6.3,2.6l-9.1-4.4c-2.5-1.1-3.8-4.6-2-7.2l8.5-12.1-14.3.3c-3.1-.2-5-2.9-4.7-5.2l1.3-10c.2-3.1,3-4.3,6.1-4.1l14.4,4.3-4.8-14.3c-2.2-4.1-.4-6.7,2.5-7.2l9.5-1.7c2.9-.5,5.5,1.3,5.3,4.4l.4,15,12.8-9.1c1.9-1.9,5.9-1,7.1,1.8l4.6,9c2,2.7,1,5.9-1.8,7.1Z"/>
    <path class="st2" d="M314,334.3c7.7-7.5,11.7-18.5,9.7-29.9-3.2-18.3-20.5-30.4-38.8-27.2l-22,3.9c-18.3,3.2-30.4,20.5-27.2,38.8,2,11.5,9.5,20.5,19.3,24.8l2.3,12.9c.7,3.7,3.9,6.3,7.5,6.3s.9,0,1.3-.1c4.1-.7,6.9-4.7,6.2-8.8l-1.3-7.5c1.2,0,2.3-.2,3.5-.4l3.5-.6,1.3,7.3c.7,3.7,3.9,6.3,7.5,6.3s.9,0,1.3-.1c4.1-.7,6.9-4.7,6.2-8.8l-1.3-7.3,3.5-.6c1.2-.2,2.3-.5,3.5-.8l1.3,7.5c.7,3.7,3.9,6.3,7.5,6.3s.9,0,1.3-.1c4.1-.7,6.9-4.7,6.2-8.8l-2.3-12.9ZM262,319c-6.1,1.1-11.9-3-12.9-9.1-1.1-6.1,3-11.9,9.1-12.9,6.1-1.1,11.9,3,12.9,9.1,1.1,6.1-3,11.9-9.1,12.9ZM291.5,336.5l-14.7,2.6c-1.5.3-3.2-.9-2.7-2.5l4.7-16c.5-1.6,2.7-2,3.7-.6l9.9,13.4c1.7,1.2.5,2.9-.9,3.2ZM298.7,312.6c-6.1,1.1-11.9-3-12.9-9.1-1.1-6.1,3-11.9,9.1-12.9,6.1-1.1,11.9,3,12.9,9.1,1.1,6.1-3,11.9-9.1,12.9Z"/>
    <path class="st2" d="M364.4,278.3l-.9,37.9c0,4.5-4,7.5-7.8,7.4-3.1-.2-5.6-2-6.9-4.8l-13.8-35.4c-2.9-7.8.8-16.8,8.6-19.7s16.8.8,19.7,8.6c1,1.3,1.4,3.5,1,5.9Z"/>
    <path class="st2" d="M358.8,332.2h0c-4.4.8-6.8,4.2-6,8.6h0c.8,4.4,4.2,6.8,8.6,6h0c4.4-.8,6.8-4.2,6-8.6h0c-.8-4.4-4.2-6.8-8.6-6Z"/>
    <path class="st2" d="M445.9,285.8c-1-5.9-6.2-9.5-12.1-8.5l-1.5.3-20.4,3.6,6.1-24.5c1.1-2.5-.2-5.3-3.4-6.2-3.3-1.7-6.1-.4-7.9,2.2l-20.4,38.4c-1.1,2.5-1.4,4.8-1,7,1,5.9,6.2,9.5,12.1,8.5l1.5-.3,18.2-3.2-9.9,28.9c-1.2,1.7,0,4.5,1.8,5.7,2.6,1.8,5.5,1.3,7.3-1.3l28-42.7c1.8-2.6,2.2-4.9,1.6-7.8Z"/>
  </g>
</svg>